<mxfile host="app.diagrams.net" modified="2021-08-10T18:22:55.747Z" agent="5.0 (Windows NT 10.0; Win64; x64) AppleWebKit/537.36 (KHTML, like Gecko) Chrome/92.0.4515.131 Safari/537.36" etag="o-bnGK3u3fmtLlsUXjjP" version="14.9.5" type="github">
  <diagram id="EiPn1KZTJitWE8u6H26s" name="Page-1">
    <mxGraphModel dx="854" dy="411" grid="1" gridSize="10" guides="1" tooltips="1" connect="1" arrows="1" fold="1" page="1" pageScale="1" pageWidth="850" pageHeight="1100" math="0" shadow="0">
      <root>
        <mxCell id="0" />
        <mxCell id="1" parent="0" />
        <mxCell id="5UFqyOvrYFjWVp27AYza-1" value="" style="html=1;dashed=0;whitespace=wrap;shape=mxgraph.dfd.start" vertex="1" parent="1">
          <mxGeometry x="220" y="50" width="80" height="30" as="geometry" />
        </mxCell>
        <mxCell id="5UFqyOvrYFjWVp27AYza-2" value="" style="html=1;dashed=0;whitespace=wrap;shape=mxgraph.dfd.start" vertex="1" parent="1">
          <mxGeometry x="230" y="90" width="80" height="30" as="geometry" />
        </mxCell>
        <mxCell id="5UFqyOvrYFjWVp27AYza-3" value="" style="html=1;dashed=0;whitespace=wrap;shape=mxgraph.dfd.start" vertex="1" parent="1">
          <mxGeometry x="230" y="140" width="80" height="30" as="geometry" />
        </mxCell>
        <mxCell id="5UFqyOvrYFjWVp27AYza-4" value="" style="html=1;dashed=0;whitespace=wrap;shape=mxgraph.dfd.start" vertex="1" parent="1">
          <mxGeometry x="230" y="220" width="80" height="30" as="geometry" />
        </mxCell>
      </root>
    </mxGraphModel>
  </diagram>
</mxfile>
